<svg xmlns="http://www.w3.org/2000/svg" height="24px" viewBox="0 -960 960 960" width="24px" fill="#000000"><path d="M280-160q-33 0-56.5-23.5T200-240v-370L90-734q-17-20-6.5-43t36.5-23h680q33 0 56.5 23.5T880-720v480q0 33-23.5 56.5T800-160H280Zm0-80h520v-480H209l71 80v400Zm80-80h240q17 0 28.5-11.5T640-360q0-17-11.5-28.5T600-400H360q-17 0-28.5 11.5T320-360q0 17 11.5 28.5T360-320Zm0-120h360q17 0 28.5-11.5T760-480q0-17-11.5-28.5T720-520H360q-17 0-28.5 11.5T320-480q0 17 11.5 28.5T360-440Zm0-120h360q17 0 28.5-11.5T760-600q0-17-11.5-28.5T720-640H360q-17 0-28.5 11.5T320-600q0 17 11.5 28.5T360-560Zm-80 320v-400 400Z"/></svg>